<svg width="23" height="21" viewBox="0 0 23 21" fill="none" xmlns="http://www.w3.org/2000/svg">
<path d="M0.5 2.25C0.5 1.88533 0.644866 1.53559 0.902728 1.27773C1.16059 1.01987 1.51033 0.875 1.875 0.875H21.125C21.4897 0.875 21.8394 1.01987 22.0973 1.27773C22.3551 1.53559 22.5 1.88533 22.5 2.25C22.5 2.61467 22.3551 2.96441 22.0973 3.22227C21.8394 3.48013 21.4897 3.625 21.125 3.625H1.875C1.51033 3.625 1.16059 3.48013 0.902728 3.22227C0.644866 2.96441 0.5 2.61467 0.5 2.25ZM0.5 10.5C0.5 10.1353 0.644866 9.78559 0.902728 9.52773C1.16059 9.26987 1.51033 9.125 1.875 9.125H21.125C21.4897 9.125 21.8394 9.26987 22.0973 9.52773C22.3551 9.78559 22.5 10.1353 22.5 10.5C22.5 10.8647 22.3551 11.2144 22.0973 11.4723C21.8394 11.7301 21.4897 11.875 21.125 11.875H1.875C1.51033 11.875 1.16059 11.7301 0.902728 11.4723C0.644866 11.2144 0.5 10.8647 0.5 10.5ZM1.875 17.375C1.51033 17.375 1.16059 17.5199 0.902728 17.7777C0.644866 18.0356 0.5 18.3853 0.5 18.75C0.5 19.1147 0.644866 19.4644 0.902728 19.7223C1.16059 19.9801 1.51033 20.125 1.875 20.125H21.125C21.4897 20.125 21.8394 19.9801 22.0973 19.7223C22.3551 19.4644 22.5 19.1147 22.5 18.75C22.5 18.3853 22.3551 18.0356 22.0973 17.7777C21.8394 17.5199 21.4897 17.375 21.125 17.375H1.875Z" fill="white"/>
</svg>
