<svg width="100" height="100" viewBox="0 0 100 100" fill="none" xmlns="http://www.w3.org/2000/svg">
<path d="M66.6667 91.6667C62.225 86.4792 56.3917 83.3333 50 83.3333C43.6083 83.3333 37.775 86.4792 33.3333 91.6667M50 54.1666C44.7167 54.1666 39.1292 55.0833 34.75 56.3041C31.4542 57.2208 28.8 61.425 29.2083 64.8333C29.3583 66.0958 30.4458 66.6667 31.5917 66.6667H68.4083C69.5542 66.6667 70.6417 66.0958 70.7917 64.8333C71.2 61.4208 68.5458 57.225 65.25 56.3041C60.2815 54.9304 55.1547 54.2118 50 54.1666ZM50 54.1666V41.6666M87.5 41.6666C85.2899 41.6666 83.1702 42.5446 81.6074 44.1074C80.0446 45.6702 79.1667 47.7898 79.1667 50V54.1666C79.1667 56.3768 78.2887 58.4964 76.7259 60.0592C75.1631 61.622 73.0435 62.5 70.8333 62.5M12.5 41.6666C14.7101 41.6666 16.8298 42.5446 18.3926 44.1074C19.9554 45.6702 20.8333 47.7898 20.8333 50V54.1666C20.8333 56.3768 21.7113 58.4964 23.2741 60.0592C24.8369 61.622 26.9565 62.5 29.1667 62.5M50 66.6667V91.6667M53.4167 41.6666H46.5833C40.7417 41.6666 37.8208 41.6666 35.7083 39.9C33.5958 38.1375 32.8875 35.1083 31.4708 29.0416C29.2417 19.5083 28.1292 14.7416 30.4667 11.5416C32.8042 8.33331 37.4 8.33331 46.5833 8.33331H53.4167C62.6 8.33331 67.1958 8.33331 69.5333 11.5416C71.8708 14.7416 70.7583 19.5083 68.5333 29.0416C67.1167 35.1041 66.4083 38.1375 64.2917 39.9C62.1792 41.6666 59.2583 41.6666 53.4167 41.6666Z" stroke="#046381" stroke-width="5" stroke-linecap="round" stroke-linejoin="round"/>
</svg>
