<svg width="110" height="110" viewBox="0 0 110 110" fill="none" xmlns="http://www.w3.org/2000/svg">
<g clip-path="url(#clip0_116_12)">
<path fill-rule="evenodd" clip-rule="evenodd" d="M79.0625 96.25C96.1813 96.25 110 89.375 110 79.0625V13.75C110 6.875 96.25 0 79.0625 0C61.875 0 48.125 6.875 48.125 13.75V37.8125C56.1687 41.1813 63.0438 46.8187 67.925 53.9688C71.2938 54.6287 75.0063 54.9931 79.0625 54.9931C88.0687 54.9931 95.5625 53.1988 100.925 50.2769C101.686 49.8585 102.427 49.4042 103.146 48.9156V58.4031C103.146 60.0187 101.86 62.5281 97.6319 64.8381C93.5344 67.0725 87.2506 68.7156 79.0694 68.7156C77.4331 68.7156 75.8748 68.6538 74.3944 68.53C74.9444 70.7988 75.311 73.1133 75.4944 75.4737C76.654 75.5379 77.8456 75.57 79.0694 75.57C88.0756 75.57 95.5694 73.7756 100.932 70.8537C101.693 70.4353 102.434 69.9811 103.152 69.4925V78.98C103.152 80.6025 102.128 83.0088 97.7144 85.3875C93.3694 87.725 86.8519 89.2925 79.0831 89.2925C77.5019 89.2925 75.971 89.2283 74.4906 89.1C73.9621 91.3851 73.2517 93.6244 72.3663 95.7962C74.5296 96.0392 76.7662 96.1606 79.0762 96.1606L79.0625 96.25ZM97.625 44.275C101.853 41.965 103.139 39.4556 103.139 37.84V28.3525C102.428 28.8383 101.688 29.2921 100.918 29.7138C95.5694 32.6356 88.0619 34.43 79.0556 34.43C70.0494 34.43 62.5556 32.6356 57.1931 29.7138C56.4318 29.2953 55.6908 28.8411 54.9725 28.3525V37.84C54.9725 39.4556 56.2581 41.965 60.4863 44.2681C64.5838 46.5025 70.8675 48.1456 79.0488 48.1456C87.23 48.1456 93.4862 46.5025 97.6112 44.2681L97.625 44.275ZM55 17.1875C55 15.2075 55.8594 13.3031 57.4612 12.1413C58.3344 11.5087 59.2831 10.8762 60.0325 10.5325C61.9094 9.66625 71.3075 6.86812 79.0762 6.86812C86.845 6.86812 93.5825 8.42875 98.12 10.5325C98.9725 10.9244 99.9144 11.5363 100.746 12.1413C102.334 13.2894 103.152 15.18 103.152 17.1394V17.1806C103.152 18.7963 101.867 21.3056 97.6387 23.6156C93.5412 25.85 87.2575 27.4931 79.0762 27.4931C70.895 27.4931 64.6388 25.8431 60.5138 23.6156C56.2856 21.3125 55 18.7962 55 17.1875Z" fill="#046381"/>
<path fill-rule="evenodd" clip-rule="evenodd" d="M61.875 79.0625C61.875 96.1813 48.0563 110 30.9375 110C13.8188 110 0 96.1813 0 79.0625C0 61.9438 13.8188 48.125 30.9375 48.125C48.0563 48.125 61.875 61.9438 61.875 79.0625ZM55 79.0625C55 92.3312 44.2062 103.125 30.9375 103.125C17.6688 103.125 6.875 92.3312 6.875 79.0625C6.875 65.7938 17.6688 55 30.9375 55C44.2062 55 55 65.7938 55 79.0625Z" fill="#046381"/>
</g>
<defs>
<clipPath id="clip0_116_12">
<rect width="110" height="110" fill="white"/>
</clipPath>
</defs>
</svg>
