<svg width="146" height="146" viewBox="0 0 146 146" fill="none" xmlns="http://www.w3.org/2000/svg">
<path d="M118.625 106.458C118.625 110.492 117.023 114.36 114.171 117.212C111.318 120.064 107.45 121.667 103.417 121.667C99.3832 121.667 95.5149 120.064 92.6628 117.212C89.8106 114.36 88.2083 110.492 88.2083 106.458C88.2083 102.425 89.8106 98.5565 92.6628 95.7044C95.5149 92.8523 99.3832 91.25 103.417 91.25C107.45 91.25 111.318 92.8523 114.171 95.7044C117.023 98.5565 118.625 102.425 118.625 106.458ZM57.7917 106.458C57.7917 110.492 56.1894 114.36 53.3372 117.212C50.4851 120.064 46.6168 121.667 42.5833 121.667C38.5498 121.667 34.6815 120.064 31.8294 117.212C28.9773 114.36 27.375 110.492 27.375 106.458C27.375 102.425 28.9773 98.5565 31.8294 95.7044C34.6815 92.8523 38.5498 91.25 42.5833 91.25C46.6168 91.25 50.4851 92.8523 53.3372 95.7044C56.1894 98.5565 57.7917 102.425 57.7917 106.458Z" stroke="#046381" stroke-width="6" stroke-linecap="round" stroke-linejoin="round"/>
<path d="M88.2082 106.458H57.7915M118.625 106.458H123.266C124.605 106.458 125.274 106.458 125.834 106.385C127.848 106.134 129.72 105.219 131.156 103.785C132.591 102.351 133.508 100.478 133.76 98.4648C133.833 97.899 133.833 97.2298 133.833 95.8915V79.0833C133.833 68.5962 129.667 58.5386 122.252 51.1231C114.836 43.7076 104.779 39.5416 94.2915 39.5416M91.2499 94.2916V42.5833C91.2499 33.9814 91.2499 29.6805 88.5732 27.0099C85.9087 24.3333 81.6078 24.3333 72.9999 24.3333H30.4165C21.8147 24.3333 17.5138 24.3333 14.8432 27.0099C12.1665 29.6744 12.1665 33.9753 12.1665 42.5833V91.2499C12.1665 96.9378 12.1665 99.7788 13.3893 101.896C14.1901 103.283 15.3419 104.435 16.729 105.236C18.846 106.458 21.6869 106.458 27.3748 106.458" stroke="#046381" stroke-width="6" stroke-linecap="round" stroke-linejoin="round"/>
<path d="M56.7391 72.9999L65.7789 65.8581C70.5908 62.0499 72.9998 60.1519 72.9998 57.7916M72.9998 57.7916C72.9998 55.4313 70.5908 53.5333 65.7789 49.7251L56.7391 42.5833M72.9998 57.7916H30.4165" stroke="#046381" stroke-width="6" stroke-linecap="round" stroke-linejoin="round"/>
</svg>
