<svg width="112" height="112" viewBox="0 0 112 112" fill="none" xmlns="http://www.w3.org/2000/svg">
<path d="M97.8133 76.7667C97.86 76.0667 98 75.3667 98 74.6667V77L97.8133 76.7667ZM51.3333 74.6667C51.3333 77.98 52.0333 81.1534 53.2933 84H28V88.6667C28 91.2334 25.9 93.3334 23.3333 93.3334H18.6667C16.1 93.3334 14 91.2334 14 88.6667V51.3334L23.7067 23.3334C24.64 20.6267 27.2533 18.6667 30.3333 18.6667H81.6667C84.7467 18.6667 87.36 20.6267 88.2933 23.3334L98 51.3334V74.6667C98 61.7867 87.5467 51.3334 74.6667 51.3334C61.7867 51.3334 51.3333 61.7867 51.3333 74.6667ZM37.3333 63C37.3333 59.1267 34.2067 56 30.3333 56C26.46 56 23.3333 59.1267 23.3333 63C23.3333 66.8734 26.46 70 30.3333 70C34.2067 70 37.3333 66.8734 37.3333 63ZM88.6667 46.6667L81.6667 25.6667H30.3333L23.3333 46.6667H88.6667ZM106.727 98.8867L87.5467 79.7067C89.46 74.8534 88.3867 69.16 84.3733 65.1934C80.1733 60.9467 73.8733 60.1067 68.7867 62.44L77.84 71.4934L71.54 77.84L62.2533 68.74C59.7333 73.8267 60.9 80.1267 65.0067 84.3734C66.86 86.264 69.2257 87.5717 71.8125 88.1355C74.3994 88.6993 77.0946 88.4946 79.5667 87.5467L98.7467 106.68C99.5867 107.567 100.847 107.567 101.687 106.68L106.54 101.873C107.567 101.033 107.567 99.54 106.727 98.8867Z" fill="#046381"/>
</svg>
