<svg width="100" height="100" viewBox="0 0 100 100" fill="none" xmlns="http://www.w3.org/2000/svg">
<path d="M50.0003 37.5C58.0545 37.5 64.5837 30.9708 64.5837 22.9166C64.5837 14.8625 58.0545 8.33331 50.0003 8.33331C41.9462 8.33331 35.417 14.8625 35.417 22.9166C35.417 30.9708 41.9462 37.5 50.0003 37.5Z" stroke="#046381" stroke-width="5" stroke-linecap="round" stroke-linejoin="round"/>
<path d="M8.3335 85.4167C8.3335 67.0062 25.1231 52.0833 45.8335 52.0833M58.3335 60.8333C58.3335 58.6104 72.9168 54.1666 72.9168 54.1666C72.9168 54.1666 87.5001 58.6104 87.5001 60.8333C87.5001 78.6104 72.9168 87.5 72.9168 87.5C72.9168 87.5 58.3335 78.6104 58.3335 60.8333Z" stroke="#046381" stroke-width="5" stroke-linecap="round" stroke-linejoin="round"/>
</svg>
