<svg width="104" height="104" viewBox="0 0 104 104" fill="none" xmlns="http://www.w3.org/2000/svg">
<path d="M27.4093 78.0001H83.2573C87.3441 78.0001 91.2635 76.3766 94.1533 73.4868C97.0431 70.597 98.6666 66.6775 98.6666 62.5907V52C98.6666 49.7015 97.7535 47.4971 96.1282 45.8718C94.5029 44.2465 92.2985 43.3334 90 43.3334C87.7014 43.3334 85.497 44.2465 83.8717 45.8718C82.2464 47.4971 81.3333 49.7015 81.3333 52V57.2001C81.3333 58.1195 80.9681 59.0012 80.3179 59.6514C79.6678 60.3015 78.786 60.6667 77.8666 60.6667H32.8C31.8806 60.6667 30.9988 60.3015 30.3487 59.6514C29.6986 59.0012 29.3333 58.1195 29.3333 57.2001V52C29.3333 49.7015 28.4202 47.4971 26.7949 45.8718C25.1696 44.2465 22.9652 43.3334 20.6667 43.3334C18.3681 43.3334 16.1637 44.2465 14.5384 45.8718C12.9131 47.4971 12 49.7015 12 52V62.5907C12 66.6775 13.6235 70.597 16.5133 73.4868C19.4031 76.3766 23.3225 78.0001 27.4093 78.0001Z" stroke="#046381" stroke-width="5"/>
<path d="M90.0001 43.3333C90.0001 39.3033 90.0001 37.2926 89.6665 35.62C88.9978 32.2573 87.3469 29.1685 84.9225 26.7442C82.4982 24.3199 79.4094 22.669 76.0468 22.0003C74.3741 21.6666 72.3635 21.6666 68.3335 21.6666H42.3334C38.3034 21.6666 36.2928 21.6666 34.6201 22.0003C31.2574 22.669 28.1686 24.3199 25.7443 26.7442C23.32 29.1685 21.6691 32.2573 21.0004 35.62C20.6667 37.2926 20.6667 39.3033 20.6667 43.3333" stroke="#046381" stroke-width="5"/>
<path d="M90.0001 82.3333V78M20.6667 82.3333V78" stroke="#046381" stroke-width="2" stroke-linecap="round"/>
</svg>
