<svg width="100" height="100" viewBox="0 0 100 100" fill="none" xmlns="http://www.w3.org/2000/svg">
<path d="M50.0001 18.75C48.7072 18.7499 47.4461 19.1508 46.3905 19.8974C45.3349 20.644 44.5369 21.6996 44.1064 22.9188C43.8104 23.6738 43.2324 24.2843 42.4946 24.621C41.7568 24.9578 40.917 24.9946 40.1526 24.7236C39.3882 24.4525 38.7591 23.8949 38.3983 23.1686C38.0374 22.4423 37.9731 21.6041 38.2189 20.8313C38.8546 19.0356 39.8923 17.4091 41.2527 16.0757C42.6131 14.7424 44.2602 13.7377 46.0683 13.1382C47.8763 12.5387 49.7975 12.3604 51.685 12.6168C53.5725 12.8733 55.3764 13.5577 56.959 14.6178C58.5415 15.678 59.8609 17.0858 60.8163 18.7337C61.7716 20.3816 62.3377 22.2261 62.4714 24.1262C62.605 26.0264 62.3026 27.9319 61.5872 29.6974C60.8719 31.4628 59.7625 33.0413 58.3439 34.3125L58.0876 34.5438C56.7126 35.775 55.4689 36.8813 54.5251 38.0813C53.5251 39.3188 53.1314 40.325 53.1314 41.225C53.1314 42.5938 53.8814 43.85 55.0876 44.5L88.5001 62.5C90.4519 63.5551 91.9963 65.2308 92.8889 67.2621C93.7815 69.2933 93.9714 71.5642 93.4285 73.7155C92.8857 75.8668 91.6411 77.7758 89.8916 79.1404C88.1421 80.5049 85.9876 81.2473 83.7689 81.25H16.2189C13.9983 81.25 11.8414 80.5087 10.0901 79.1435C8.33876 77.7784 7.09338 75.8676 6.55145 73.7142C6.00952 71.5608 6.20206 69.2882 7.09854 67.2566C7.99501 65.2251 9.5441 63.5511 11.5001 62.5L39.1439 47.625C39.8704 47.2617 40.7099 47.1956 41.4844 47.4407C42.2589 47.6858 42.9075 48.2229 43.2927 48.9381C43.678 49.6533 43.7696 50.4904 43.5481 51.272C43.3266 52.0536 42.8095 52.7182 42.1064 53.125L14.4564 68C13.7236 68.3908 13.1428 69.0156 12.8064 69.7748C12.47 70.534 12.3974 71.384 12.6001 72.1893C12.8029 72.9945 13.2693 73.7088 13.9252 74.2182C14.581 74.7276 15.3884 75.0028 16.2189 75H83.7813C84.6089 74.9973 85.412 74.7191 86.0639 74.2092C86.7157 73.6994 87.1793 72.987 87.3813 72.1845C87.5834 71.382 87.5125 70.5351 87.1797 69.7774C86.847 69.0196 86.2714 68.3943 85.5439 68L52.1251 50C50.5414 49.1451 49.2177 47.8787 48.2937 46.3343C47.3697 44.7899 46.8796 43.0247 46.8751 41.225C46.8751 38.3375 48.2001 35.9813 49.6251 34.1875C50.9251 32.5563 52.5501 31.1063 53.8376 29.9563L54.1751 29.6563C55.1183 28.8118 55.7827 27.7007 56.0806 26.4703C56.3784 25.2398 56.2955 23.9479 55.8429 22.7656C55.3903 21.5833 54.5893 20.5663 53.546 19.8492C52.5026 19.1321 51.2661 18.7488 50.0001 18.75Z" fill="#046381"/>
</svg>
