<svg width="100" height="100" viewBox="0 0 100 100" fill="none" xmlns="http://www.w3.org/2000/svg">
<path d="M12.5 25L19.6708 68.0375C19.9953 69.9833 20.9996 71.7509 22.5049 73.0258C24.0102 74.3007 25.919 75.0002 27.8917 75H50M84.0083 45.95L87.5 25" stroke="#046381" stroke-width="5" stroke-linecap="round" stroke-linejoin="round"/>
<path d="M14.5249 37.3541C15.2249 37.4403 15.9388 37.4889 16.6666 37.5C19.9582 37.5375 23.0791 36.7583 24.9999 35.4166C26.9207 34.0833 30.0416 33.3041 33.3332 33.3333C36.6249 33.3041 39.7457 34.0833 41.6666 35.4166C43.5874 36.7583 46.7082 37.5375 49.9999 37.5C53.2916 37.5375 56.4124 36.7583 58.3332 35.4166C60.2541 34.0833 63.3749 33.3041 66.6666 33.3333C69.9582 33.3041 73.0791 34.0833 74.9999 35.4166C76.9207 36.7583 80.0416 37.5375 83.3332 37.5C84.0443 37.4944 84.7429 37.4472 85.4291 37.3583M66.6666 91.6667C66.6666 91.6667 66.6666 83.3333 79.1666 75" stroke="#046381" stroke-width="5" stroke-linecap="round" stroke-linejoin="round"/>
<path d="M79.1665 87.5C75.8513 87.5 72.6719 86.183 70.3277 83.8388C67.9835 81.4946 66.6665 78.3152 66.6665 75C66.6665 71.6848 67.9835 68.5054 70.3277 66.1612C72.6719 63.817 75.8513 62.5 79.1665 62.5H91.6665V75C91.6665 78.3152 90.3495 81.4946 88.0053 83.8388C85.6611 86.183 82.4817 87.5 79.1665 87.5Z" stroke="#046381" stroke-width="5" stroke-linecap="round" stroke-linejoin="round"/>
</svg>
