<svg width="91" height="91" viewBox="0 0 91 91" fill="none" xmlns="http://www.w3.org/2000/svg">
<path d="M45.4998 22.75C62.2525 22.75 75.8332 19.3549 75.8332 15.1667C75.8332 10.9785 62.2525 7.58337 45.4998 7.58337C28.7472 7.58337 15.1665 10.9785 15.1665 15.1667C15.1665 19.3549 28.7472 22.75 45.4998 22.75Z" stroke="#046381" stroke-width="4" stroke-linecap="round" stroke-linejoin="round"/>
<path d="M45.5 47.3959C47.0084 47.3959 48.4551 46.7967 49.5217 45.7301C50.5883 44.6635 51.1875 43.2168 51.1875 41.7084C51.1875 37.9167 45.5 32.2292 45.5 32.2292C45.5 32.2292 39.8125 37.9167 39.8125 41.7084C39.8125 43.2168 40.4117 44.6635 41.4783 45.7301C42.5449 46.7967 43.9916 47.3959 45.5 47.3959Z" stroke="#046381" stroke-width="4" stroke-linecap="round" stroke-linejoin="round"/>
<path d="M72.0415 18.9584V39.9907C74.4568 41.6212 75.8332 43.5018 75.8332 45.5C75.8332 51.7828 62.2514 56.875 45.4998 56.875C28.7483 56.875 15.1665 51.7828 15.1665 45.5C15.1665 43.5018 16.5429 41.6212 18.9582 39.9907V18.9584" stroke="#046381" stroke-width="4" stroke-linecap="round" stroke-linejoin="round"/>
<path d="M72.0415 51.1875V66.5324C74.4568 68.1628 75.8332 70.0435 75.8332 72.0417C75.8332 78.3245 62.2514 83.4167 45.4998 83.4167C28.7483 83.4167 15.1665 78.3245 15.1665 72.0417C15.1665 70.0435 16.5429 68.1628 18.9582 66.5324V51.1875" stroke="#046381" stroke-width="4" stroke-linecap="round" stroke-linejoin="round"/>
</svg>
