<svg width="110" height="110" viewBox="0 0 110 110" fill="none" xmlns="http://www.w3.org/2000/svg">
<g clip-path="url(#clip0_116_10)">
<path d="M72.1875 0.107422L110 19.0137V61.1768L103.125 57.7393V26.6943L75.625 40.4443V54.3018L68.75 57.7393V40.4443L41.25 26.6943V38.8867L34.375 35.4492V19.0137L72.1875 0.107422ZM72.1875 34.4824L81.6943 29.7021L56.8262 15.4688L45.4932 21.1621L72.1875 34.4824ZM89.1064 26.0498L98.8818 21.1621L72.1875 7.78809L64.1846 11.8164L89.1064 26.0498ZM61.875 61.1768L55 64.6143V64.5605L34.375 74.873V99.3115L55 88.9453V96.6797L30.9375 108.711L0 93.1885V56.8799L30.9375 41.4111L61.875 56.8799V61.1768ZM27.5 99.3115V74.873L6.875 64.5605V88.9453L27.5 99.3115ZM30.9375 68.9111L50.7568 59.0283L30.9375 49.0918L11.1182 59.0283L30.9375 68.9111ZM61.875 68.8574L85.9375 56.8262L110 68.8574V97.1631L85.9375 109.194L61.875 97.1631V68.8574ZM82.5 99.7949V83.4131L68.75 76.5381V92.9199L82.5 99.7949ZM103.125 92.9199V76.5381L89.375 83.4131V99.7949L103.125 92.9199ZM85.9375 77.4512L98.8818 70.9521L85.9375 64.5068L72.9932 70.9521L85.9375 77.4512Z" fill="#046381"/>
</g>
<defs>
<clipPath id="clip0_116_10">
<rect width="110" height="110" fill="white"/>
</clipPath>
</defs>
</svg>
